<?xml version="1.0" encoding="utf-8" ?>
<svg baseProfile="tiny" height="100%" version="1.2" width="100%" xmlns="http://www.w3.org/2000/svg" xmlns:ev="http://www.w3.org/2001/xml-events" xmlns:xlink="http://www.w3.org/1999/xlink"><defs /><polygon fill="none" points="407,497" stroke="black" stroke-width="1" /><polygon fill="none" points="392,489 392,490" stroke="black" stroke-width="1" /><polygon fill="none" points="655,482" stroke="black" stroke-width="1" /><polygon fill="none" points="658,481" stroke="black" stroke-width="1" /><polygon fill="none" points="391,481 391,482" stroke="black" stroke-width="1" /><polygon fill="none" points="663,479 664,479" stroke="black" stroke-width="1" /><polygon fill="none" points="359,479" stroke="black" stroke-width="1" /><polygon fill="none" points="678,474" stroke="black" stroke-width="1" /><polygon fill="none" points="687,471" stroke="black" stroke-width="1" /><polygon fill="none" points="336,471" stroke="black" stroke-width="1" /><polygon fill="none" points="320,456" stroke="black" stroke-width="1" /><polygon fill="none" points="652,453" stroke="black" stroke-width="1" /><polygon fill="none" points="652,450 652,451" stroke="black" stroke-width="1" /><polygon fill="none" points="346,448" stroke="black" stroke-width="1" /><polygon fill="none" points="392,447 392,448" stroke="black" stroke-width="1" /><polygon fill="none" points="356,445" stroke="black" stroke-width="1" /><polygon fill="none" points="360,444" stroke="black" stroke-width="1" /><polygon fill="none" points="659,443" stroke="black" stroke-width="1" /><polygon fill="none" points="363,443" stroke="black" stroke-width="1" /><polygon fill="none" points="656,442 657,442" stroke="black" stroke-width="1" /><polygon fill="none" points="654,442" stroke="black" stroke-width="1" /><polygon fill="none" points="366,442" stroke="black" stroke-width="1" /><polygon fill="none" points="395,435" stroke="black" stroke-width="1" /><polygon fill="none" points="398,426" stroke="black" stroke-width="1" /><polygon fill="none" points="417,393" stroke="black" stroke-width="1" /><polygon fill="none" points="424,385" stroke="black" stroke-width="1" /><polygon fill="none" points="447,366" stroke="black" stroke-width="1" /><polygon fill="none" points="458,360" stroke="black" stroke-width="1" /><polygon fill="none" points="470,355" stroke="black" stroke-width="1" /><polygon fill="none" points="480,352" stroke="black" stroke-width="1" /><polygon fill="none" points="614,338" stroke="black" stroke-width="1" /><polygon fill="none" points="616,337" stroke="black" stroke-width="1" /><polygon fill="none" points="618,336" stroke="black" stroke-width="1" /><polygon fill="none" points="402,335" stroke="black" stroke-width="1" /><polygon fill="none" points="377,325" stroke="black" stroke-width="1" /></svg>